# xmcd
#
# Track frame offsets:
#	182
#	18505
#	32040
#	50062
#	69925
#	91552
#	106232
#	121640
#	142607
#	172947
#	192345
#	206760
#	227305
#	245295
#	265797
#	285977
#	314762
#
# Disc length: 4521 seconds
#
# Revision: 3
# Processed by: cddbd v1.5.2PL0 Copyright (c) Steve Scherf et al.
# Submitted via: audiograbber 1.83.01
#
DISCID=d511a711
DTITLE=Status Quo - Whatever You Want and Just Supposin'
DYEAR=1991
DGENRE=Rock
TTITLE0=Whatever You Want - Whatever You Want
TTITLE1=Whatever You Want - Shady Lady
TTITLE2=Whatever You Want - Who Asked You
TTITLE3=Whatever You Want - Your Smiling Face
TTITLE4=Whatever You Want - Living On An Island
TTITLE5=Whatever You Want - Come Rock With Me
TTITLE6=Whatever You Want - Rockin' On
TTITLE7=Whatever You Want - Runaway
TTITLE8=Whatever You Want - Breaking Away
TTITLE9=Just Supposin' - What You're Proposing
TTITLE10=Just Supposin' - Run To Mummy
TTITLE11=Just Supposin' - Don't Drive My Car
TTITLE12=Just Supposin' - Lies
TTITLE13=Just Supposin' - Over The Edge
TTITLE14=Just Supposin' - Name Of The Game
TTITLE15=Just Supposin' - Coming And Going
TTITLE16=Just Supposin' - Rock 'n' Roll
EXTD=
EXTT0=
EXTT1=
EXTT2=
EXTT3=
EXTT4=
EXTT5=
EXTT6=
EXTT7=
EXTT8=
EXTT9=
EXTT10=
EXTT11=
EXTT12=
EXTT13=
EXTT14=
EXTT15=
EXTT16=
PLAYORDER=
